<svg xmlns="http://www.w3.org/2000/svg" viewBox="0 0 32 32" width="32px" height="32px"><g id="Layer_1" transform="matrix(0.078736, 0, 0, 0.078736, 6.173918, 5.535869)" style=""><path class="st0" d="M -20.346 278.63 C -23.246 283.66 -24.036 289.63 -22.526 295.25 C -21.026 300.86 -17.356 305.64 -12.326 308.55 C -0.736 315.23 14.024 323.76 25.594 330.45 C 30.624 333.35 36.594 334.14 42.214 332.64 C 47.814 331.13 52.604 327.47 55.514 322.44 C 69.844 297.63 123.584 204.55 123.584 204.55 C 123.584 204.55 60.544 92.74 60.564 92.81 C 64.774 114.02 61.584 136.76 49.974 156.87 C 24.884 200.34 -4.696 251.58 -20.326 278.64 L -20.356 278.64 L -20.346 278.63 Z" style="fill: rgb(38, 61, 139); fill-rule: evenodd; stroke-width: 1;"/><path class="st1" d="M 56.944 141.83 L 123.584 204.55 C 123.584 204.55 60.544 92.74 60.564 92.81 C 63.754 108.88 62.694 125.83 56.954 141.83 L 56.944 141.83 L 56.944 141.83 Z" style="fill: rgb(12, 15, 26); fill-opacity: 0.5; fill-rule: evenodd; stroke-width: 1;"/><path class="st2" d="M 199.944 148.66 L 27.364 38.51 C 27.364 38.51 37.524 45.88 43.724 55.69 C 52.254 69.16 59.284 86.65 60.564 92.81 C 60.564 92.81 158.204 266.31 190.604 322.44 C 196.644 332.91 210.044 336.5 220.524 330.46 C 233.234 323.12 249.894 313.5 262.534 306.2 C 272.894 300.22 276.534 287.04 270.714 276.59 C 255.874 249.92 199.934 148.66 199.934 148.66 L 199.944 148.66 Z" style="fill: rgb(72, 118, 187); fill-rule: evenodd; stroke-width: 1;"/><path class="st3" d="M 199.944 148.66 L 27.364 38.51 C 27.364 38.51 37.524 45.88 43.724 55.69 C 52.254 69.16 59.284 86.65 60.564 92.81 L 199.944 148.66 L 199.934 148.66 L 199.944 148.66 Z" style="fill: rgb(15, 24, 43); fill-opacity: 0.5; fill-rule: evenodd; stroke-width: 1;"/><path class="st4" d="M -13.996 12.2 C -4.596 18.36 200.024 148.48 199.924 148.64 C 188.404 126.24 159.834 71.83 133.144 27.62 C 108.494 -13.18 87.324 -28.93 69.914 -40.35 C 69.914 -40.35 41.784 -57.97 31.734 -64.25 C 26.694 -67.4 20.594 -68.38 14.824 -66.94 C 9.054 -65.51 4.114 -61.78 1.144 -56.63 C -5.686 -44.8 -14.326 -28.56 -20.956 -17.05 C -26.756 -7 -23.706 5.85 -14.006 12.21 L -13.996 12.2 Z" style="fill: rgb(66, 197, 229); fill-rule: evenodd; stroke-width: 1;"/></g></svg>