<?xml version="1.0" encoding="UTF-8"?>
<svg id="Layer_1" xmlns="http://www.w3.org/2000/svg" version="1.1" viewBox="0 0 450 450">
  <!-- Generator: Adobe Illustrator 29.8.2, SVG Export Plug-In . SVG Version: 2.1.1 Build 3)  -->
  <defs>
    <style>
      .st0 {
        fill: #263d8b;
      }

      .st0, .st1, .st2, .st3, .st4 {
        fill-rule: evenodd;
      }

      .st1 {
        fill: #0c0f1a;
      }

      .st1, .st3 {
        fill-opacity: .5;
      }

      .st2 {
        fill: #4876bb;
      }

      .st3 {
        fill: #0f182b;
      }

      .st4 {
        fill: #42c5e5;
      }
    </style>
  </defs>
  <path class="st0" d="M79.85,370.73c-2.9,5.03-3.69,11-2.18,16.62,1.5,5.61,5.17,10.39,10.2,13.3,11.59,6.68,26.35,15.21,37.92,21.9,5.03,2.9,11,3.69,16.62,2.19,5.6-1.51,10.39-5.17,13.3-10.2,14.33-24.81,68.07-117.89,68.07-117.89,0,0-63.04-111.81-63.02-111.74,4.21,21.21,1.02,43.95-10.59,64.06-25.09,43.47-54.67,94.71-70.3,121.77h-.03Z"/>
  <path class="st1" d="M157.14,233.93l66.64,62.72s-63.04-111.81-63.02-111.74c3.19,16.07,2.13,33.02-3.61,49.02h-.01Z"/>
  <path class="st2" d="M300.14,240.76l-172.58-110.15s10.16,7.37,16.36,17.18c8.53,13.47,15.56,30.96,16.84,37.12,0,0,97.64,173.5,130.04,229.63,6.04,10.47,19.44,14.06,29.92,8.02,12.71-7.34,29.37-16.96,42.01-24.26,10.36-5.98,14-19.16,8.18-29.61-14.84-26.67-70.78-127.93-70.78-127.93Z"/>
  <path class="st3" d="M300.14,240.76l-172.58-110.15s10.16,7.37,16.36,17.18c8.53,13.47,15.56,30.96,16.84,37.12l139.38,55.85h-.01Z"/>
  <path class="st4" d="M86.2,104.3c9.4,6.16,214.02,136.28,213.92,136.44-11.52-22.4-40.09-76.81-66.78-121.02-24.65-40.8-45.82-56.55-63.23-67.97,0,0-28.13-17.62-38.18-23.9-5.04-3.15-11.14-4.13-16.91-2.69-5.77,1.43-10.71,5.16-13.68,10.31-6.83,11.83-15.47,28.07-22.1,39.58-5.8,10.05-2.75,22.9,6.95,29.26h0Z"/>
</svg>