<?xml version="1.0" encoding="UTF-8"?>
<svg id="Layer_1" xmlns="http://www.w3.org/2000/svg" version="1.1" viewBox="0 0 320 320">
  <!-- Generator: Adobe Illustrator 29.8.2, SVG Export Plug-In . SVG Version: 2.1.1 Build 3)  -->
  <defs>
    <style>
      .st0 {
        fill: #0c0f1a;
      }

      .st0, .st1, .st2, .st3, .st4 {
        fill-rule: evenodd;
      }

      .st0, .st3 {
        fill-opacity: .5;
      }

      .st1 {
        fill: #42c5e5;
      }

      .st2 {
        fill: #4876bb;
      }

      .st3 {
        fill: #0f182b;
      }

      .st4 {
        fill: #263d8b;
      }
    </style>
  </defs>
  <path class="st4" d="M51.42,269.02c-2.17,3.76-2.76,8.23-1.63,12.43,1.12,4.2,3.87,7.77,7.63,9.95,8.67,5,19.71,11.38,28.37,16.38,3.76,2.17,8.23,2.76,12.43,1.64,4.19-1.13,7.77-3.87,9.95-7.63,10.72-18.56,50.92-88.19,50.92-88.19,0,0-47.16-83.64-47.14-83.59,3.15,15.87.76,32.88-7.92,47.92-18.77,32.52-40.9,70.85-52.59,91.09Z"/>
  <path class="st0" d="M109.24,166.68l49.85,46.92s-47.16-83.64-47.14-83.59c2.39,12.02,1.59,24.7-2.7,36.67Z"/>
  <path class="st2" d="M216.21,171.79L87.11,89.39s7.6,5.51,12.24,12.85c6.38,10.08,11.64,23.16,12.6,27.77,0,0,73.04,129.79,97.28,171.78,4.52,7.83,14.54,10.52,22.38,6,9.51-5.49,21.97-12.69,31.43-18.15,7.75-4.47,10.47-14.33,6.12-22.15-11.1-19.95-52.95-95.7-52.95-95.7Z"/>
  <path class="st3" d="M216.21,171.79L87.11,89.39s7.6,5.51,12.24,12.85c6.38,10.08,11.64,23.16,12.6,27.77l104.27,41.78Z"/>
  <path class="st1" d="M56.17,69.71c7.03,4.61,160.1,101.95,160.03,102.07-8.62-16.76-29.99-57.46-49.96-90.53-18.44-30.52-34.28-42.3-47.3-50.85,0,0-21.04-13.18-28.56-17.88-3.77-2.36-8.33-3.09-12.65-2.01-4.32,1.07-8.01,3.86-10.23,7.71-5.11,8.85-11.57,21-16.53,29.61-4.34,7.52-2.06,17.13,5.2,21.89Z"/>
</svg>